<?xml version="1.0" encoding="UTF-8"?><svg id="Calque_2" xmlns="http://www.w3.org/2000/svg" width="67.46mm" height="67.46mm" viewBox="0 0 191.22 191.22"><defs><style>.cls-1{fill:#231f20;}.cls-2{fill:#0e0c0f;}</style></defs><g id="Calque_1-2"><g><path class="cls-2" d="M78.82,39.33c-.4,3.15-.31,6.37,.11,9.52s.98,6.33,3.23,8.64,5.65,3.43,8.87,3.31,6.06-1.41,8.89-2.89c6.24-3.26,12.12-7.74,16.54-13.24,2.12-2.64,4.26-5.57,5.6-8.7,.72-1.69,1.47-5.62-1.21-5.94-1.75-.2-3.49,1.13-4.73,2.19-1.55,1.33-2.86,2.97-4.09,4.6-3.25,4.34-6.04,9.03-8.75,13.72-2.45,4.23-4.76,8.52-7.18,12.77-2.95,5.19-6.13,10.24-9.31,15.29-3.74,5.94-7.54,11.85-11.34,17.76-1.74,2.71-3.57,5.39-5.22,8.17-.53,.88-2.47,4.07-.34,4.37,1.5,.22,3.18-.9,4.4-1.65,1.09-.68,2.16-1.4,3.15-2.21,2.3-1.88,4.72-3.69,6.75-5.87,1.85-1.98,3.22-4.25,4.34-6.71,1.47-3.24,3.13-7.14,2.45-10.78-.45-2.4-1.54-4.88-3.39-6.55-2.21-2-5.13-3.2-8.03-3.75-3.09-.58-6.09-.12-9.02,.93-2.76,.98-5.4,2.36-7.81,4.01-1.82,1.24-4.16,2.97-4.83,5.18-.75,2.49,2.72,3.16,4.45,3.51,2.42,.49,4.87,.42,7.32,.27,8.06-.48,16.09-1.41,24.07-2.61,13.13-1.97,26.15-4.64,39.07-7.65,4.08-.95,8.15-1.94,12.21-2.95,.95-.24,1.94-.86,2.41-1.75,.37-.7,.02-1.37-.84-1.15-13.59,3.4-27.27,6.48-41.07,8.93-8.84,1.57-17.73,2.88-26.67,3.7-.82,.08-1.64,.15-2.46,.21-.39,.03-.78,.06-1.17,.09-.09,0-.57,.04-.24,.02-.21,.02-.41,.03-.62,.04-1.43,.1-2.86,.21-4.3,.26s-2.81,0-4.21-.18-3-.49-4.16-1.31c-.26-.18,.07,.09-.05-.03-.04-.04-.08-.09-.12-.13-.05-.06-.21-.39-.1-.14-.04-.09-.05-.23-.03-.32-.07,.34,.06-.13,.09-.21-.14,.4,.07-.08,.12-.17,.12-.22-.28,.34,0,.02,.06-.07,.11-.14,.16-.21,.32-.42-.11,.07,.14-.15,.2-.18,.38-.37,.58-.55,0,0,.43-.36,.17-.15s.2-.15,.2-.16c.2-.15,.4-.3,.6-.45s.42-.3,.64-.44c.14-.09,.28-.18,.42-.28,.19-.12-.2,.12,.13-.08,1.02-.6,2.4-1.35,3.24-1.72,2.28-1.01,4.4-1.75,6.93-1.68,4.87,.14,10.24,2.66,12.01,7.48,1.26,3.44,.46,6.83-.91,10.11-.53,1.27-1.11,2.53-1.77,3.73-.57,1.03-.89,1.54-1.64,2.46-.15,.18-.3,.35-.45,.53-.25,.29-.06,.07,0,0-.1,.11-.21,.22-.31,.32-.42,.43-.86,.84-1.31,1.24-1.11,.99-1.88,1.61-3.01,2.53-1.04,.84-2.05,1.67-3.16,2.41-.14,.09-.28,.18-.42,.28-.4,.26,.45-.27-.06,.04-.3,.18-.59,.35-.9,.51-.08,.04-.59,.29-.25,.13s-.15,.06-.22,.08c-.17,.07-.51,.09,.03,0-.39,.06,.08,.03-.02,.03-.28-.02,.19-.06,.03,0-.08,.03,.19,.09,.11,.08-.02,0-.07-.1-.07-.1-.02,.01,.13,.26,.05,.1,0,0-.02-.12,0-.14-.04,.04-.04,.26,0,.08,.02-.1,.04-.2,.07-.29,.06-.22,.12-.33,.12-.32,.11-.24,.23-.47,.35-.7,.34-.63,.72-1.23,1.11-1.84,3.39-5.3,6.8-10.59,10.19-15.89,5.96-9.31,11.9-18.63,17.27-28.3,2.43-4.38,4.88-8.76,7.48-13.05,2.38-3.94,4.68-7.66,7.71-11.15,.37-.43-.13,.12,.19-.21,.14-.14,.28-.29,.42-.43,.12-.12,.24-.24,.37-.35,.2-.19,.55-.44,.1-.11,.13-.1,.26-.2,.38-.3,.5-.38,.02,.05-.02,0,0,0,.29-.15,.31-.17-.35,.31-.32,.11-.01,.03-.6,.17-.18,.07-.05,.04-.34,.1-.11,.1-.02,.02,.04-.03-.18-.12,0,0,.04,.03,.28,.16,.21,.1,.43,.4,.47,1.27,.49,1.8s-.05,.92-.26,1.51c-1,2.8-3.01,5.41-4.81,7.73-1.71,2.2-3.64,4.12-5.82,5.95-2.53,2.12-5.3,3.98-8.21,5.54-2.5,1.34-4.63,2.47-7.39,2.48-2.95,.02-6.08-1.07-8.07-3.32-1.98-2.24-3.05-4.93-3.63-7.83-.54-2.65-1.01-5.39-1.01-8.1,0-.47-1.13,.2-1.18,.54h0Z"/><path class="cls-2" d="M191.22,191.22H0V0H191.22V191.22ZM4,187.22H187.22V4H4V187.22Z"/><path class="cls-2" d="M179.21,179.21H12.01V12.01H179.21V179.21Zm-165.21-2H177.21V14.01H14.01V177.21Z"/><g><g><path class="cls-1" d="M38.34,131.38v3.86h-.82v-3.86l-4.51-7.35h.9l4.05,6.59,4.05-6.59h.85l-4.51,7.35Z"/><path class="cls-1" d="M49.62,129.94v5.3h-.77v-1.49c-.53,.96-1.55,1.55-3.01,1.55-1.87,0-3.01-.96-3.01-2.38,0-1.26,.8-2.34,3.12-2.34h2.87v-.67c0-1.55-.85-2.39-2.48-2.39-1.15,0-2.19,.43-2.88,1.06l-.4-.58c.83-.74,2.05-1.18,3.34-1.18,2.07,0,3.22,1.06,3.22,3.12Zm-.8,2.83v-1.57h-2.85c-1.73,0-2.34,.72-2.34,1.68,0,1.09,.85,1.76,2.32,1.76s2.38-.67,2.87-1.87Z"/><path class="cls-1" d="M60.39,130.35v4.88h-.8v-4.82c0-1.89-1.01-2.88-2.71-2.88-1.97,0-3.17,1.26-3.17,3.25v4.45h-.8v-8.36h.77v1.81c.56-1.17,1.73-1.87,3.31-1.87,2.03,0,3.39,1.2,3.39,3.54Z"/><path class="cls-1" d="M71.16,130.35v4.88h-.8v-4.82c0-1.89-1.01-2.88-2.71-2.88-1.97,0-3.17,1.26-3.17,3.25v4.45h-.8v-8.36h.77v1.81c.56-1.17,1.73-1.87,3.31-1.87,2.03,0,3.39,1.2,3.39,3.54Z"/><path class="cls-1" d="M74.2,124.21c0-.35,.29-.66,.66-.66s.66,.29,.66,.64-.29,.66-.66,.66-.66-.29-.66-.64Zm.26,2.67h.8v8.36h-.8v-8.36Z"/><path class="cls-1" d="M77.72,131.06c0-2.5,1.78-4.24,4.23-4.24,1.33,0,2.48,.51,3.17,1.54l-.59,.43c-.61-.85-1.54-1.25-2.58-1.25-1.97,0-3.41,1.41-3.41,3.52s1.44,3.52,3.41,3.52c1.04,0,1.97-.4,2.58-1.25l.59,.43c-.69,1.01-1.84,1.54-3.17,1.54-2.45,0-4.23-1.76-4.23-4.24Z"/><path class="cls-1" d="M90.34,130.77l-2.18,1.98v2.48h-.8v-11.88h.8v8.4l5.35-4.88h1.02l-3.6,3.38,3.95,4.98h-.99l-3.55-4.47Z"/><path class="cls-1" d="M100.07,129.63c0-3.27,2.48-5.68,5.81-5.68,1.58,0,3.01,.51,3.99,1.55l-.51,.53c-.96-.94-2.13-1.33-3.44-1.33-2.87,0-5.03,2.11-5.03,4.93s2.16,4.93,5.03,4.93c1.31,0,2.48-.4,3.44-1.34l.51,.53c-.98,1.04-2.4,1.57-3.99,1.57-3.33,0-5.81-2.42-5.81-5.68Z"/><path class="cls-1" d="M119.82,130.35v4.88h-.8v-4.82c0-1.89-1.01-2.88-2.71-2.88-1.97,0-3.17,1.26-3.17,3.25v4.45h-.8v-11.88h.8v5.27c.58-1.14,1.73-1.81,3.28-1.81,2.03,0,3.39,1.2,3.39,3.54Z"/><path class="cls-1" d="M129.14,129.94v5.3h-.77v-1.49c-.53,.96-1.55,1.55-3.01,1.55-1.87,0-3.01-.96-3.01-2.38,0-1.26,.8-2.34,3.12-2.34h2.87v-.67c0-1.55-.85-2.39-2.48-2.39-1.15,0-2.19,.43-2.88,1.06l-.4-.58c.83-.74,2.05-1.18,3.34-1.18,2.07,0,3.22,1.06,3.22,3.12Zm-.8,2.83v-1.57h-2.85c-1.73,0-2.34,.72-2.34,1.68,0,1.09,.85,1.76,2.32,1.76s2.38-.67,2.87-1.87Z"/><path class="cls-1" d="M136.39,126.82v.78c-.06,0-.13-.02-.19-.02-1.86,0-2.96,1.23-2.96,3.3v4.35h-.8v-8.36h.77v1.82c.51-1.22,1.62-1.89,3.19-1.89Z"/><path class="cls-1" d="M138.6,123.36h.8v11.88h-.8v-11.88Z"/><path class="cls-1" d="M149.83,131.25h-7.19c.08,1.98,1.54,3.33,3.54,3.33,1.06,0,2.03-.38,2.67-1.17l.46,.53c-.74,.9-1.89,1.36-3.15,1.36-2.53,0-4.31-1.76-4.31-4.24s1.71-4.24,4-4.24,3.99,1.73,3.99,4.21c0,.06-.02,.14-.02,.22Zm-7.17-.62h6.4c-.11-1.81-1.42-3.11-3.2-3.11s-3.07,1.28-3.2,3.11Z"/><path class="cls-1" d="M151.09,134.23l.37-.64c.64,.54,1.78,1.01,3.01,1.01,1.76,0,2.46-.62,2.46-1.57,0-2.43-5.54-.64-5.54-3.92,0-1.26,1.06-2.29,3.17-2.29,1.06,0,2.21,.32,2.87,.82l-.37,.64c-.7-.51-1.62-.75-2.51-.75-1.63,0-2.35,.67-2.35,1.57,0,2.51,5.54,.74,5.54,3.92,0,1.36-1.17,2.29-3.3,2.29-1.38,0-2.69-.46-3.35-1.07Z"/></g><g><path class="cls-1" d="M91.01,138.33c.2-.43,.35-.74,.43-.9,.04-.07,.15-.11,.27-.11,.31,0,.74,.19,.74,.55,0,.08-.02,.18-.08,.28-.56,1.03-3.57,7.54-5.52,13.16,.38-.01,.71-.01,.96-.01,.52,0,.8,.01,.8,.01,.02,0,.03,.03,.03,.09,0,.26-.2,.98-.5,.98h-.01s-.49-.04-1.42-.04h-.2c-.83,2.62-1.28,4.36-1.28,5.68,0,.55,.1,.89,.32,.95,.04,.01,.07,.01,.11,.01,.07,0,.14-.01,.21-.01,.27,.01,.38,.13,.38,.3,0,.25-.28,.57-.69,.57-.15,0-.3-.04-.47-.13-.51-.27-.73-.91-.73-1.83,0-1.21,.39-2.95,.96-4.86,.06-.21,.12-.44,.2-.65-1.52,.05-3.64,.21-6.33,.63-3.19,4.02-6.22,8.15-8.15,11.39-.05,.08-.11,.11-.18,.11-.27,0-.65-.43-.65-.84,0-.11,.02-.2,.08-.3,1.69-2.87,4.25-6.45,7.01-10.03-3.37,.61-7.46,1.61-12.14,3.22-.03,.01-.06,.02-.09,.02-.15,0-.27-.13-.27-.28,0-.11,.07-.21,.18-.25,5.04-1.85,9.45-2.97,13.06-3.67,2.89-3.69,5.94-7.32,8.42-10.09,1.29-1.43,3.32-3.86,5.01-4.83m-5.62,13.92c1.36-4.15,3.37-8.96,4.61-11.74-.68,.98-1.58,2.03-2.49,3.03-2.31,2.54-5.19,5.89-8,9.37,2.45-.4,4.42-.58,5.87-.66Z"/><path class="cls-1" d="M92.36,150.74c-.13,.22-.44,.84-.76,1.56,.82-1.17,1.81-2.3,2.67-2.44,.34-.05,1.09,.59,1.17,.91,.12,.45-.16,1.02-.2,1.22-.07,.28-1.29,.24-1.04-.45,.11-.3,.59-1.23,.24-1.18-1.43,.18-3.51,3.89-4.16,5.13,0,.07-.74,.21-.96-.51-.02-.1-.02-.19,0-.27,.28-.92,1.94-4.9,1.94-4.9,.03-.07,.15-.1,.28-.1,.45,0,1.23,.34,.8,1.03Z"/><path class="cls-1" d="M100.97,146.28c-.11,.23-.22,.47-.34,.7,2.83-.11,6.55-.16,11.29-.05,.15,0,.26,.13,.26,.27,0,.14-.13,.26-.27,.26-4.89-.12-8.69-.06-11.54,.06-.96,2-1.88,4.05-2.76,6.08-1.09,2.54-2.66,5.91-1.01,7.11,.02,.24-.21,.39-.44,.28-2.19-1.17-.71-5.5,.34-8,.22-.53,1.29-2.89,2.47-5.41-3.9,.2-5.58,.51-5.59,.51-.14,.02-.28-.07-.3-.22-.02-.15,.07-.28,.22-.3,0,0,1.79-.32,5.93-.53,.96-2.06,1.96-4.16,2.59-5.4,.04-.02,.09-.03,.15-.03,.41,0,1.14,.52,.89,1.02,0,.03-.02,.05-.03,.07-.02,.03-.05,.07-.07,.11-.06,.12-.13,.24-.19,.36l-1.58,3.11Z"/><path class="cls-1" d="M103.08,151c-.36,.62-1.27,2.29-1.5,2.88-.57,1.46,3.26-1.74,3.54-1.98,.48-.39,.8,.01,.32,.4-.93,.86-2.58,2.18-3.74,2.66-.67,.29-1.35-.8-1.19-1.33,.32-1.06,1.54-3.69,1.54-3.69,.04-.08,.14-.11,.28-.11,.46,0,1.22,.4,.76,1.18Zm1.08-2.81c-.22,.77-1.29,1.02-1.27,.11,0-.29,.3-.55,.65-.58,.02,0,.04,0,.06,0,.33,0,.63,.21,.56,.47Z"/><path class="cls-1" d="M115.24,146.29l-.34,.69c1.72-.07,3.78-.11,6.19-.11,1.55,0,3.25,.02,5.1,.06,.14,0,.26,.12,.26,.26h0c0,.15-.11,.26-.25,.26h-.01c-1.83-.04-3.49-.06-5.02-.06-2.58,0-4.73,.05-6.52,.13-.96,2.01-1.88,4.05-2.76,6.09-.76,1.75-1.73,3.88-1.73,5.43,0,.71,.2,1.29,.71,1.67v.03c0,.17-.13,.29-.29,.29-.05,0-.11-.01-.16-.04-.82-.44-1.13-1.33-1.13-2.41,0-1.77,.82-4.03,1.47-5.58,.22-.54,1.29-2.88,2.46-5.4-1.87,2.99-3.55,4.89-4.8,6.05,.11,.22,.18,.45,.18,.67,0,.05,0,.09,0,.14-.1,.69-.86,1.47-1.63,1.47-.14,0-.28-.03-.42-.08-.28-.12-.71-.42-.71-.71,0-.13,.07-.25,.26-.36,.35-.21,.66-.42,1.03-.7-.24-1-1.16-2.24-1.16-2.56h0c.06-.82,1.23-1.87,2.03-2.02,.05,0,.09-.01,.14-.01,.54,0,1.32,.48,1.48,.91,.05,.13,.07,.25,.07,.38,0,.3-.11,.57-.12,.72-.02,.13-.22,.22-.44,.22-.22,0-.45-.11-.45-.38,0-.05,0-.1,.02-.16,.05-.22,.24-.69,.24-.93,0-.09-.03-.14-.09-.14h-.05c-.39,.11-.75,.51-1.05,1.05-.12,.2-.17,.4-.17,.6,0,.49,.3,.96,.58,1.43,1.15-1.09,2.7-2.84,4.43-5.56-3.45,.2-4.94,.48-4.95,.48h-.05c-.13,0-.23-.09-.26-.21v-.05c0-.13,.09-.23,.21-.26,.01,0,1.63-.3,5.38-.5,.92-1.49,1.87-3.24,2.85-5.31,.05-.11,.22-.15,.36-.15h.07c.36,0,.94,.38,.94,.8,0,.07-.01,.15-.05,.22,0,.03-.01,.05-.03,.07l-.06,.11-.19,.36-1.58,3.11Zm-8.18,8.72c.07-.09,.11-.2,.13-.32-.16,.12-.31,.22-.44,.3,.07,.04,.12,.06,.18,.06,.05,0,.09-.01,.13-.04Z"/><path class="cls-1" d="M119.42,150.96c-.39,1.56-1.62,2.1-2.95,2.1-.12,.37-.24,.85-.22,1.07,.09,1.75,4.36-1.98,4.65-2.23,.44-.38,.76,.11,.31,.49-1.15,1.14-2.81,2.81-4.61,2.76-1.14-.03-2.03-1.29-1.89-1.96,.32-1.56,1.54-3.56,3.28-3.64h.03c.55,0,1.59,.67,1.41,1.4Zm-.74-.69c-.7,.09-1.46,1.14-1.94,2.16,1.72-.33,2.29-2.16,1.95-2.16h-.01Z"/></g></g></g></g></svg>