<?xml version="1.0" encoding="UTF-8"?><svg id="Calque_2" xmlns="http://www.w3.org/2000/svg" width="125.94" height="110.69" viewBox="0 0 125.94 110.69"><defs><style>.cls-1{fill:#fff;}</style></defs><g id="Calque_1-2"><path class="cls-1" d="M29.5,13.09c-.57,4.42-.44,8.94,.15,13.35,.58,4.31,1.38,8.87,4.53,12.11,3.18,3.27,7.93,4.81,12.44,4.64,4.54-.17,8.5-1.98,12.47-4.06,8.75-4.57,17-10.86,23.2-18.58,2.98-3.71,5.97-7.81,7.85-12.21,1.02-2.38,2.06-7.89-1.7-8.33-2.45-.29-4.89,1.59-6.63,3.08-2.18,1.87-4.02,4.16-5.73,6.45-4.56,6.08-8.47,12.67-12.28,19.24-3.43,5.93-6.68,11.96-10.07,17.91-4.14,7.28-8.6,14.37-13.07,21.45-5.25,8.33-10.58,16.62-15.9,24.91-2.45,3.81-5.01,7.56-7.32,11.45-.74,1.24-3.46,5.71-.48,6.14,2.11,.3,4.47-1.26,6.17-2.32,1.53-.96,3.02-1.96,4.42-3.11,3.23-2.63,6.62-5.17,9.47-8.23,2.59-2.78,4.51-5.96,6.08-9.42,2.06-4.54,4.4-10.02,3.44-15.12-.63-3.37-2.16-6.85-4.75-9.19-3.1-2.81-7.2-4.49-11.27-5.26-4.33-.82-8.55-.16-12.65,1.3-3.87,1.38-7.57,3.31-10.96,5.62-2.55,1.74-5.84,4.16-6.78,7.27-1.06,3.49,3.82,4.43,6.24,4.92,3.39,.68,6.84,.59,10.27,.38,11.3-.67,22.56-1.97,33.76-3.66,18.41-2.77,36.68-6.51,54.81-10.73,5.72-1.33,11.43-2.72,17.13-4.14,1.34-.33,2.72-1.2,3.38-2.46,.51-.98,.03-1.92-1.17-1.62-19.07,4.77-38.26,9.09-57.61,12.52-12.4,2.2-24.87,4.04-37.41,5.2-1.15,.11-2.3,.21-3.45,.3-.55,.04-1.09,.09-1.64,.13-.13,0-.79,.06-.34,.03-.29,.02-.58,.04-.87,.06-2.01,.14-4.02,.29-6.03,.36s-3.95,0-5.9-.26c-1.93-.26-4.21-.69-5.84-1.83-.37-.26,.1,.13-.07-.05-.06-.06-.11-.12-.17-.18-.08-.08-.29-.55-.14-.19-.05-.12-.07-.33-.04-.45-.1,.48,.08-.18,.12-.3-.19,.56,.1-.11,.17-.24,.17-.3-.39,.47-.01,.03,.08-.09,.16-.2,.23-.29,.45-.59-.15,.1,.19-.22,.27-.25,.54-.52,.81-.77,.01-.01,.6-.51,.25-.22s.28-.21,.28-.22c.28-.21,.56-.42,.84-.63s.59-.42,.9-.62c.19-.13,.39-.26,.59-.39,.27-.17-.29,.16,.19-.11,1.43-.84,3.37-1.89,4.54-2.41,3.19-1.41,6.17-2.46,9.73-2.36,6.84,.2,14.37,3.74,16.85,10.49,1.77,4.82,.64,9.58-1.28,14.19-.74,1.78-1.55,3.55-2.48,5.24-.79,1.45-1.25,2.16-2.31,3.45-.21,.25-.42,.49-.63,.74-.35,.4-.09,.09-.01,.01-.14,.15-.29,.3-.43,.45-.59,.6-1.21,1.18-1.83,1.74-1.55,1.39-2.64,2.26-4.23,3.55-1.45,1.18-2.87,2.34-4.43,3.38-.19,.13-.39,.26-.59,.39-.56,.37,.63-.38-.09,.05-.42,.25-.83,.49-1.26,.72-.12,.06-.83,.41-.35,.19s-.21,.08-.31,.12c-.24,.1-.71,.13,.04,0-.54,.09,.11,.04-.03,.04-.39-.02,.26-.08,.04,0-.11,.04,.27,.12,.15,.12-.02,0-.09-.15-.09-.15-.03,.02,.18,.37,.07,.13,0,0-.02-.18,0-.19-.05,.05-.06,.36,0,.11,.03-.14,.06-.28,.1-.41,.09-.31,.17-.46,.16-.45,.15-.33,.32-.66,.49-.98,.47-.88,1.01-1.73,1.55-2.58,4.76-7.43,9.54-14.85,14.29-22.28,8.35-13.06,16.69-26.14,24.22-39.7,3.41-6.15,6.85-12.29,10.49-18.31,3.34-5.52,6.57-10.74,10.82-15.64,.53-.61-.19,.17,.26-.29,.2-.2,.39-.41,.59-.61,.17-.17,.34-.33,.51-.49,.28-.26,.77-.62,.15-.15,.18-.14,.36-.28,.54-.42,.71-.53,.03,.06-.03,0,0,0,.4-.21,.44-.24-.49,.44-.45,.16-.02,.04-.85,.24-.25,.1-.06,.05-.48,.14-.15,.14-.03,.03,.05-.04-.25-.17,0,0,.06,.04,.4,.23,.3,.13,.6,.56,.66,1.78,.69,2.52s-.06,1.3-.36,2.12c-1.41,3.92-4.22,7.58-6.75,10.84-2.4,3.09-5.1,5.77-8.17,8.34-3.55,2.98-7.43,5.58-11.51,7.77-3.51,1.88-6.5,3.46-10.36,3.48-4.14,.02-8.53-1.51-11.32-4.66-2.78-3.15-4.27-6.91-5.1-10.98-.76-3.72-1.42-7.55-1.42-11.36,0-.66-1.59,.27-1.65,.76h0Z"/></g></svg>